<svg xmlns="http://www.w3.org/2000/svg" width="36.12" height="68.275" viewBox="0 0 36.12 68.275">
  <g id="Componente_63_1" data-name="Componente 63 – 1" transform="translate(0.5 0.5)">
    <g id="Componente_62_1" data-name="Componente 62 – 1">
      <path id="Trazado_4" data-name="Trazado 4" d="M2402.369-2540.226l-22.955.31.76,6.171.713,35.319,13.99,1.16,7.491-38Z" transform="translate(-2369.624 2549.322)" fill="#cf9775"/>
      <g id="Group_Copy_2" data-name="Group Copy 2">
        <path id="Fill_7" data-name="Fill 7" d="M26.194,52.654H8.925a1.044,1.044,0,0,1-.97-.893l-4.947-35.4H1.94A1.964,1.964,0,0,1,0,14.378V9.618A1.964,1.964,0,0,1,1.94,7.636H4.948V5.255a.963.963,0,0,1,.776-.991L28.038,0h.194a.929.929,0,0,1,.97.992V7.636h3.978a1.964,1.964,0,0,1,1.94,1.983v4.66a1.965,1.965,0,0,1-1.94,1.984H32.112l-4.947,35.5A1.044,1.044,0,0,1,26.194,52.654ZM8.537,42.34,9.7,50.571H25.418l1.067-8.231ZM6.306,25.781,8.343,40.259H26.777l2.134-14.477ZM4.948,16.262,6.015,23.8h23.09l1.066-7.536ZM1.94,9.618v4.66H33.277V9.618ZM27.358,2.182,6.888,6.049V7.636h20.47Z" transform="translate(0 0)" fill="#2d140d" stroke="#2d140d" stroke-width="1"/>
      </g>
    </g>
    <rect id="Rectángulo_313" data-name="Rectángulo 313" width="14" height="2" rx="1" transform="translate(10.376 65.775)" fill="#cf9775"/>
  </g>
</svg>
