<svg id="Componente_62_1" data-name="Componente 62 – 1" xmlns="http://www.w3.org/2000/svg" width="25.078" height="34.706" viewBox="0 0 25.078 34.706">
  <path id="Path" d="M12,1.5v9A1.5,1.5,0,0,1,10.5,12h-9A1.5,1.5,0,0,1,0,10.5v-9A1.5,1.5,0,0,1,1.5,0h9A1.5,1.5,0,0,1,12,1.5Z" transform="translate(7.8 7.206)" fill="#cf9775"/>
  <rect id="Rectángulo_313" data-name="Rectángulo 313" width="14" height="2" rx="1" transform="translate(6 32.706)" fill="#cf9775"/>
  <g id="Grupo_10" data-name="Grupo 10" transform="translate(-26 -701.294)">
    <path id="Fill_9" data-name="Fill 9" d="M15,1.875v11.25A1.875,1.875,0,0,1,13.125,15H1.875A1.875,1.875,0,0,1,0,13.125V1.875A1.875,1.875,0,0,1,1.875,0h11.25A1.875,1.875,0,0,1,15,1.875Z" transform="translate(30.59 706.5)" fill="none" stroke="#2d140d" stroke-miterlimit="10" stroke-width="3"/>
    <g id="Rectángulo_2" data-name="Rectángulo 2" transform="matrix(0.695, -0.719, 0.719, 0.695, 26, 704.171)" fill="#2d140d" stroke="#fff" stroke-width="1">
      <rect width="4" height="31" rx="2" stroke="none"/>
      <rect x="0.5" y="0.5" width="3" height="30" rx="1.5" fill="none"/>
    </g>
  </g>
</svg>
