<svg xmlns="http://www.w3.org/2000/svg" width="18" height="31" viewBox="0 0 18 31">
  <g id="Componente_62_1" data-name="Componente 62 – 1" transform="translate(1.5 1.5)">
    <path id="Path" d="M12,1.5v9A1.5,1.5,0,0,1,10.5,12h-9A1.5,1.5,0,0,1,0,10.5v-9A1.5,1.5,0,0,1,1.5,0h9A1.5,1.5,0,0,1,12,1.5Z" transform="translate(2.749 3)" fill="#cf9775"/>
    <path id="Fill_9" data-name="Fill 9" d="M15,1.875v11.25A1.875,1.875,0,0,1,13.125,15H1.875A1.875,1.875,0,0,1,0,13.125V1.875A1.875,1.875,0,0,1,1.875,0h11.25A1.875,1.875,0,0,1,15,1.875Z" fill="none" stroke="#2d140d" stroke-miterlimit="10" stroke-width="3"/>
    <rect id="Rectángulo_313" data-name="Rectángulo 313" width="14" height="2" rx="1" transform="translate(0.949 27.5)" fill="#cf9775"/>
  </g>
</svg>
