<svg xmlns="http://www.w3.org/2000/svg" width="25.09" height="45.595" viewBox="0 0 25.09 45.595">
  <g id="Componente_62_1" data-name="Componente 62 – 1" transform="translate(0.15 0.15)">
    <path id="Trazado_4" data-name="Trazado 4" d="M2394.4-2538.4h-14.224l.816,4.938,2.42,15.122,1.109,5.153h12.3l2.722-25.214Z" transform="translate(-2378 2542.912)" fill="#cf9775"/>
    <g id="Group_Copy_3" data-name="Group Copy 3">
      <path id="Fill_7" data-name="Fill 7" d="M18.491,30.822H6.3a.736.736,0,0,1-.684-.63L2.123,5.2H1.369A1.386,1.386,0,0,1,0,3.805V1.4A1.386,1.386,0,0,1,1.369,0H23.421A1.386,1.386,0,0,1,24.79,1.4V3.735a1.386,1.386,0,0,1-1.369,1.4h-.754L19.175,30.192A.736.736,0,0,1,18.491,30.822ZM6.026,23.544l.822,5.809H17.942l.754-5.809ZM4.451,11.854,5.89,22.073H18.9l1.507-10.219ZM3.493,5.135l.752,5.319h16.3L21.3,5.135ZM1.369,1.4V3.735H23.49V1.4Z" transform="translate(0 0)" fill="#2d140d" stroke="#2d140d" stroke-miterlimit="10" stroke-width="0.3"/>
    </g>
    <rect id="Rectángulo_313" data-name="Rectángulo 313" width="14" height="2" rx="1" transform="translate(5 43.445)" fill="#cf9775"/>
  </g>
</svg>
