<svg xmlns="http://www.w3.org/2000/svg" width="42.8" height="54.685" viewBox="0 0 42.8 54.685">
  <g id="Componente_67_1" data-name="Componente 67 – 1" transform="translate(1.5 1.5)">
    <path id="Path" d="M12,1.5v9A1.5,1.5,0,0,1,10.5,12h-9A1.5,1.5,0,0,1,0,10.5v-9A1.5,1.5,0,0,1,1.5,0h9A1.5,1.5,0,0,1,12,1.5Z" transform="translate(25 26.685)" fill="#cf9775"/>
    <path id="Path-2" data-name="Path" d="M12,1.5v9A1.5,1.5,0,0,1,10.5,12h-9A1.5,1.5,0,0,1,0,10.5v-9A1.5,1.5,0,0,1,1.5,0h9A1.5,1.5,0,0,1,12,1.5Z" transform="translate(3 26.685)" fill="#cf9775"/>
    <path id="Path-3" data-name="Path" d="M12,1.5v9A1.5,1.5,0,0,1,10.5,12h-9A1.5,1.5,0,0,1,0,10.5v-9A1.5,1.5,0,0,1,1.5,0h9A1.5,1.5,0,0,1,12,1.5Z" transform="translate(15 2.685)" fill="#cf9775"/>
    <g id="Grupo_11" data-name="Grupo 11" transform="translate(-214.8 -682.815)">
      <path id="Path-4" data-name="Path" d="M15,13.125A1.875,1.875,0,0,1,13.125,15H1.875A1.875,1.875,0,0,1,0,13.125V1.875A1.875,1.875,0,0,1,1.875,0h11.25A1.875,1.875,0,0,1,15,1.875Z" transform="translate(239.6 706.5)" fill="none" stroke="#2d140d" stroke-miterlimit="10" stroke-width="3"/>
      <path id="Path-5" data-name="Path" d="M15,1.875v11.25A1.875,1.875,0,0,1,13.125,15H1.875A1.875,1.875,0,0,1,0,13.125V1.875A1.875,1.875,0,0,1,1.875,0h11.25A1.875,1.875,0,0,1,15,1.875Z" transform="translate(214.8 706.5)" fill="none" stroke="#2d140d" stroke-miterlimit="10" stroke-width="3"/>
      <path id="Path-6" data-name="Path" d="M0,13.125V1.875A1.875,1.875,0,0,1,1.875,0h11.25A1.875,1.875,0,0,1,15,1.875v11.25A1.875,1.875,0,0,1,13.125,15H1.875A1.875,1.875,0,0,1,0,13.125Z" transform="translate(227.2 682.815)" fill="none" stroke="#2d140d" stroke-miterlimit="10" stroke-width="3"/>
    </g>
    <g id="Componente_65_1" data-name="Componente 65 – 1" transform="translate(13.2 51.185)">
      <g id="Componente_66_2" data-name="Componente 66 – 2">
        <g id="Componente_63_2" data-name="Componente 63 – 2">
          <rect id="Rectángulo_314" data-name="Rectángulo 314" width="14" height="2" rx="1" fill="#cf9775"/>
        </g>
      </g>
    </g>
  </g>
</svg>
