<svg xmlns="http://www.w3.org/2000/svg" width="42.338" height="31" viewBox="0 0 42.338 31">
  <g id="Componente_63_1" data-name="Componente 63 – 1" transform="translate(1.5 1.5)">
    <path id="Path" d="M12,1.5v9A1.5,1.5,0,0,1,10.5,12h-9A1.5,1.5,0,0,1,0,10.5v-9A1.5,1.5,0,0,1,1.5,0h9A1.5,1.5,0,0,1,12,1.5Z" transform="translate(3 3)" fill="#cf9775"/>
    <path id="Path-2" data-name="Path" d="M11.338,1.417v8.5a1.417,1.417,0,0,1-1.417,1.417h-8.5A1.417,1.417,0,0,1,0,9.921v-8.5A1.417,1.417,0,0,1,1.417,0h8.5A1.417,1.417,0,0,1,11.338,1.417Z" transform="translate(28 3)" fill="#cf9775"/>
    <path id="Path-3" data-name="Path" d="M15,13.125A1.875,1.875,0,0,1,13.125,15H1.875A1.875,1.875,0,0,1,0,13.125V1.875A1.875,1.875,0,0,1,1.875,0h11.25A1.875,1.875,0,0,1,15,1.875Z" transform="translate(24.338)" fill="none" stroke="#2d140d" stroke-miterlimit="10" stroke-width="3"/>
    <path id="Path-4" data-name="Path" d="M15,1.875v11.25A1.875,1.875,0,0,1,13.125,15H1.875A1.875,1.875,0,0,1,0,13.125V1.875A1.875,1.875,0,0,1,1.875,0h11.25A1.875,1.875,0,0,1,15,1.875Z" fill="none" stroke="#2d140d" stroke-miterlimit="10" stroke-width="3"/>
    <rect id="Rectángulo_4" data-name="Rectángulo 4" width="14" height="2" rx="1" transform="translate(12.2 27.5)" fill="#cf9775"/>
  </g>
</svg>
